<mxfile host="app.diagrams.net" agent="Mozilla/5.0 (Windows NT 10.0; Win64; x64) AppleWebKit/537.36 (KHTML, like Gecko) Chrome/133.0.0.0 Safari/537.36" version="26.0.15">
  <diagram name="Pagina-1" id="kpvUS7d6-QNH0eabSYqW">
    <mxGraphModel dx="2812" dy="815" grid="1" gridSize="10" guides="1" tooltips="1" connect="1" arrows="1" fold="1" page="1" pageScale="1" pageWidth="827" pageHeight="1169" math="0" shadow="0">
      <root>
        <mxCell id="0" />
        <mxCell id="1" parent="0" />
        <mxCell id="scj3wEo-UtRtpYb698jh-5" value="Dealer" style="swimlane;childLayout=stackLayout;horizontal=1;startSize=50;horizontalStack=0;rounded=1;fontSize=14;fontStyle=0;strokeWidth=2;resizeParent=0;resizeLast=1;shadow=0;dashed=0;align=center;arcSize=4;whiteSpace=wrap;html=1;" parent="1" vertex="1">
          <mxGeometry x="60" y="800" width="160" height="140" as="geometry" />
        </mxCell>
        <mxCell id="scj3wEo-UtRtpYb698jh-6" value="+ dealerCode&lt;div&gt;+ name&lt;br&gt;&lt;div&gt;+ piva&lt;/div&gt;&lt;div&gt;+ cf&lt;/div&gt;&lt;/div&gt;" style="align=left;strokeColor=none;fillColor=none;spacingLeft=4;fontSize=12;verticalAlign=top;resizable=0;rotatable=0;part=1;html=1;" parent="scj3wEo-UtRtpYb698jh-5" vertex="1">
          <mxGeometry y="50" width="160" height="90" as="geometry" />
        </mxCell>
        <mxCell id="scj3wEo-UtRtpYb698jh-10" value="Extends" style="endArrow=block;endSize=16;endFill=0;html=1;rounded=0;exitX=0.563;exitY=0;exitDx=0;exitDy=0;exitPerimeter=0;entryX=0.5;entryY=1;entryDx=0;entryDy=0;" parent="1" source="scj3wEo-UtRtpYb698jh-5" target="qQA82szUNsiV9IecN4Yf-2" edge="1">
          <mxGeometry x="-0.36" y="10" width="160" relative="1" as="geometry">
            <mxPoint x="150" y="800" as="sourcePoint" />
            <mxPoint x="240" y="710" as="targetPoint" />
            <Array as="points">
              <mxPoint x="150" y="760" />
              <mxPoint x="240" y="760" />
            </Array>
            <mxPoint as="offset" />
          </mxGeometry>
        </mxCell>
        <mxCell id="scj3wEo-UtRtpYb698jh-14" value="keeps" style="shape=rhombus;perimeter=rhombusPerimeter;whiteSpace=wrap;html=1;align=center;" parent="1" vertex="1">
          <mxGeometry x="-170" y="790" width="120" height="60" as="geometry" />
        </mxCell>
        <mxCell id="scj3wEo-UtRtpYb698jh-18" value="" style="endArrow=none;html=1;rounded=0;exitX=1;exitY=0.5;exitDx=0;exitDy=0;entryX=-0.027;entryY=0.177;entryDx=0;entryDy=0;entryPerimeter=0;" parent="1" source="scj3wEo-UtRtpYb698jh-14" target="scj3wEo-UtRtpYb698jh-5" edge="1">
          <mxGeometry relative="1" as="geometry">
            <mxPoint x="-140" y="940" as="sourcePoint" />
            <mxPoint x="20" y="940" as="targetPoint" />
          </mxGeometry>
        </mxCell>
        <mxCell id="scj3wEo-UtRtpYb698jh-19" value="(1,1)" style="resizable=0;html=1;whiteSpace=wrap;align=right;verticalAlign=bottom;" parent="scj3wEo-UtRtpYb698jh-18" connectable="0" vertex="1">
          <mxGeometry x="1" relative="1" as="geometry" />
        </mxCell>
        <mxCell id="scj3wEo-UtRtpYb698jh-20" value="" style="endArrow=none;html=1;rounded=0;entryX=1;entryY=0.5;entryDx=0;entryDy=0;exitX=0;exitY=0.5;exitDx=0;exitDy=0;" parent="1" source="scj3wEo-UtRtpYb698jh-14" edge="1">
          <mxGeometry relative="1" as="geometry">
            <mxPoint x="-380" y="910" as="sourcePoint" />
            <mxPoint x="-270" y="820" as="targetPoint" />
          </mxGeometry>
        </mxCell>
        <mxCell id="scj3wEo-UtRtpYb698jh-21" value="(1,1)" style="resizable=0;html=1;whiteSpace=wrap;align=right;verticalAlign=bottom;" parent="scj3wEo-UtRtpYb698jh-20" connectable="0" vertex="1">
          <mxGeometry x="1" relative="1" as="geometry">
            <mxPoint x="30" as="offset" />
          </mxGeometry>
        </mxCell>
        <mxCell id="scj3wEo-UtRtpYb698jh-22" value="Storage" style="swimlane;childLayout=stackLayout;horizontal=1;startSize=50;horizontalStack=0;rounded=1;fontSize=14;fontStyle=0;strokeWidth=2;resizeParent=0;resizeLast=1;shadow=0;dashed=0;align=center;arcSize=4;whiteSpace=wrap;html=1;" parent="1" vertex="1">
          <mxGeometry x="-430" y="800" width="160" height="100" as="geometry" />
        </mxCell>
        <mxCell id="scj3wEo-UtRtpYb698jh-23" value="+ codStorage&lt;div&gt;+ Dealer: codDealer&lt;/div&gt;" style="align=left;strokeColor=none;fillColor=none;spacingLeft=4;fontSize=12;verticalAlign=top;resizable=0;rotatable=0;part=1;html=1;" parent="scj3wEo-UtRtpYb698jh-22" vertex="1">
          <mxGeometry y="50" width="160" height="50" as="geometry" />
        </mxCell>
        <mxCell id="scj3wEo-UtRtpYb698jh-26" value="StoredProduct" style="swimlane;childLayout=stackLayout;horizontal=1;startSize=50;horizontalStack=0;rounded=1;fontSize=14;fontStyle=0;strokeWidth=2;resizeParent=0;resizeLast=1;shadow=0;dashed=0;align=center;arcSize=4;whiteSpace=wrap;html=1;" parent="1" vertex="1">
          <mxGeometry x="-430" y="1120" width="160" height="140" as="geometry" />
        </mxCell>
        <mxCell id="scj3wEo-UtRtpYb698jh-27" value="+ Product: codProduct&lt;div&gt;+ Storage: codStorage&lt;/div&gt;&lt;div&gt;+ quantity&lt;/div&gt;&lt;div&gt;- new&lt;/div&gt;&lt;div&gt;- visible&lt;/div&gt;" style="align=left;strokeColor=none;fillColor=none;spacingLeft=4;fontSize=12;verticalAlign=top;resizable=0;rotatable=0;part=1;html=1;" parent="scj3wEo-UtRtpYb698jh-26" vertex="1">
          <mxGeometry y="50" width="160" height="90" as="geometry" />
        </mxCell>
        <mxCell id="scj3wEo-UtRtpYb698jh-28" value="contains" style="shape=rhombus;perimeter=rhombusPerimeter;whiteSpace=wrap;html=1;align=center;" parent="1" vertex="1">
          <mxGeometry x="-410" y="990" width="120" height="60" as="geometry" />
        </mxCell>
        <mxCell id="scj3wEo-UtRtpYb698jh-29" value="" style="endArrow=none;html=1;rounded=0;exitX=0.5;exitY=0;exitDx=0;exitDy=0;entryX=0.5;entryY=1;entryDx=0;entryDy=0;" parent="1" source="scj3wEo-UtRtpYb698jh-28" target="scj3wEo-UtRtpYb698jh-23" edge="1">
          <mxGeometry relative="1" as="geometry">
            <mxPoint x="-220" y="1070" as="sourcePoint" />
            <mxPoint x="-190" y="950" as="targetPoint" />
          </mxGeometry>
        </mxCell>
        <mxCell id="scj3wEo-UtRtpYb698jh-30" value="(0,N)" style="resizable=0;html=1;whiteSpace=wrap;align=right;verticalAlign=bottom;" parent="scj3wEo-UtRtpYb698jh-29" connectable="0" vertex="1">
          <mxGeometry x="1" relative="1" as="geometry">
            <mxPoint y="20" as="offset" />
          </mxGeometry>
        </mxCell>
        <mxCell id="scj3wEo-UtRtpYb698jh-31" value="" style="endArrow=none;html=1;rounded=0;exitX=0.5;exitY=1;exitDx=0;exitDy=0;entryX=0.5;entryY=0;entryDx=0;entryDy=0;" parent="1" source="scj3wEo-UtRtpYb698jh-28" target="scj3wEo-UtRtpYb698jh-26" edge="1">
          <mxGeometry relative="1" as="geometry">
            <mxPoint x="-210" y="1080" as="sourcePoint" />
            <mxPoint x="-50" y="1080" as="targetPoint" />
          </mxGeometry>
        </mxCell>
        <mxCell id="scj3wEo-UtRtpYb698jh-32" value="(1,1)" style="resizable=0;html=1;whiteSpace=wrap;align=right;verticalAlign=bottom;" parent="scj3wEo-UtRtpYb698jh-31" connectable="0" vertex="1">
          <mxGeometry x="1" relative="1" as="geometry" />
        </mxCell>
        <mxCell id="scj3wEo-UtRtpYb698jh-33" value="Product" style="swimlane;childLayout=stackLayout;horizontal=1;startSize=50;horizontalStack=0;rounded=1;fontSize=14;fontStyle=0;strokeWidth=2;resizeParent=0;resizeLast=1;shadow=0;dashed=0;align=center;arcSize=4;whiteSpace=wrap;html=1;" parent="1" vertex="1">
          <mxGeometry x="20" y="1100" width="160" height="160" as="geometry" />
        </mxCell>
        <mxCell id="scj3wEo-UtRtpYb698jh-34" value="+ productCode&lt;div&gt;+ name&lt;/div&gt;&lt;div&gt;+ description&lt;/div&gt;&lt;div&gt;- material&lt;/div&gt;&lt;div&gt;- dimensions&lt;/div&gt;&lt;div&gt;- weight&lt;/div&gt;" style="align=left;strokeColor=none;fillColor=none;spacingLeft=4;fontSize=12;verticalAlign=top;resizable=0;rotatable=0;part=1;html=1;" parent="scj3wEo-UtRtpYb698jh-33" vertex="1">
          <mxGeometry y="50" width="160" height="110" as="geometry" />
        </mxCell>
        <mxCell id="scj3wEo-UtRtpYb698jh-36" value="is a" style="shape=rhombus;perimeter=rhombusPerimeter;whiteSpace=wrap;html=1;align=center;" parent="1" vertex="1">
          <mxGeometry x="-180" y="1150" width="120" height="60" as="geometry" />
        </mxCell>
        <mxCell id="scj3wEo-UtRtpYb698jh-37" value="" style="endArrow=none;html=1;rounded=0;entryX=1;entryY=0.5;entryDx=0;entryDy=0;exitX=0;exitY=0.5;exitDx=0;exitDy=0;" parent="1" source="scj3wEo-UtRtpYb698jh-36" target="scj3wEo-UtRtpYb698jh-26" edge="1">
          <mxGeometry relative="1" as="geometry">
            <mxPoint x="-200" y="1070" as="sourcePoint" />
            <mxPoint x="-40" y="1070" as="targetPoint" />
          </mxGeometry>
        </mxCell>
        <mxCell id="scj3wEo-UtRtpYb698jh-38" value="(1,1)" style="resizable=0;html=1;whiteSpace=wrap;align=right;verticalAlign=bottom;" parent="scj3wEo-UtRtpYb698jh-37" connectable="0" vertex="1">
          <mxGeometry x="1" relative="1" as="geometry">
            <mxPoint x="30" as="offset" />
          </mxGeometry>
        </mxCell>
        <mxCell id="scj3wEo-UtRtpYb698jh-39" value="" style="endArrow=none;html=1;rounded=0;entryX=0;entryY=0.25;entryDx=0;entryDy=0;exitX=1;exitY=0.5;exitDx=0;exitDy=0;" parent="1" source="scj3wEo-UtRtpYb698jh-36" target="scj3wEo-UtRtpYb698jh-34" edge="1">
          <mxGeometry relative="1" as="geometry">
            <mxPoint x="-130" y="1040" as="sourcePoint" />
            <mxPoint x="20" y="1180" as="targetPoint" />
          </mxGeometry>
        </mxCell>
        <mxCell id="scj3wEo-UtRtpYb698jh-40" value="(1,N)" style="resizable=0;html=1;whiteSpace=wrap;align=right;verticalAlign=bottom;" parent="scj3wEo-UtRtpYb698jh-39" connectable="0" vertex="1">
          <mxGeometry x="1" relative="1" as="geometry">
            <mxPoint y="1" as="offset" />
          </mxGeometry>
        </mxCell>
        <mxCell id="scj3wEo-UtRtpYb698jh-41" value="Order" style="swimlane;childLayout=stackLayout;horizontal=1;startSize=50;horizontalStack=0;rounded=1;fontSize=14;fontStyle=0;strokeWidth=2;resizeParent=0;resizeLast=1;shadow=0;dashed=0;align=center;arcSize=4;whiteSpace=wrap;html=1;" parent="1" vertex="1">
          <mxGeometry x="400" y="1100" width="160" height="190" as="geometry" />
        </mxCell>
        <mxCell id="scj3wEo-UtRtpYb698jh-42" value="+ orderCode&lt;div&gt;+ Customer: customerCode&lt;/div&gt;&lt;div&gt;+ date&lt;/div&gt;&lt;div&gt;- title&lt;/div&gt;&lt;div&gt;+ shippingCode&lt;/div&gt;" style="align=left;strokeColor=none;fillColor=none;spacingLeft=4;fontSize=12;verticalAlign=top;resizable=0;rotatable=0;part=1;html=1;" parent="scj3wEo-UtRtpYb698jh-41" vertex="1">
          <mxGeometry y="50" width="160" height="140" as="geometry" />
        </mxCell>
        <mxCell id="scj3wEo-UtRtpYb698jh-43" value="contains" style="shape=rhombus;perimeter=rhombusPerimeter;whiteSpace=wrap;html=1;align=center;" parent="1" vertex="1">
          <mxGeometry x="420" y="1390" width="120" height="60" as="geometry" />
        </mxCell>
        <mxCell id="scj3wEo-UtRtpYb698jh-44" value="OrderProduct" style="swimlane;childLayout=stackLayout;horizontal=1;startSize=50;horizontalStack=0;rounded=1;fontSize=14;fontStyle=0;strokeWidth=2;resizeParent=0;resizeLast=1;shadow=0;dashed=0;align=center;arcSize=4;whiteSpace=wrap;html=1;" parent="1" vertex="1">
          <mxGeometry x="400" y="1634" width="160" height="120" as="geometry" />
        </mxCell>
        <mxCell id="scj3wEo-UtRtpYb698jh-45" value="+ Product: productCode&lt;div&gt;+ Order: orderCode&lt;/div&gt;&lt;div&gt;+ quantity&lt;/div&gt;&lt;div&gt;- Dealer: dealerCode&lt;/div&gt;" style="align=left;strokeColor=none;fillColor=none;spacingLeft=4;fontSize=12;verticalAlign=top;resizable=0;rotatable=0;part=1;html=1;" parent="scj3wEo-UtRtpYb698jh-44" vertex="1">
          <mxGeometry y="50" width="160" height="70" as="geometry" />
        </mxCell>
        <mxCell id="scj3wEo-UtRtpYb698jh-46" value="is a" style="shape=rhombus;perimeter=rhombusPerimeter;whiteSpace=wrap;html=1;align=center;" parent="1" vertex="1">
          <mxGeometry x="40" y="1420" width="120" height="60" as="geometry" />
        </mxCell>
        <mxCell id="scj3wEo-UtRtpYb698jh-47" value="" style="endArrow=none;html=1;rounded=0;exitX=0.5;exitY=1;exitDx=0;exitDy=0;entryX=0;entryY=0.25;entryDx=0;entryDy=0;" parent="1" source="scj3wEo-UtRtpYb698jh-46" target="scj3wEo-UtRtpYb698jh-44" edge="1">
          <mxGeometry relative="1" as="geometry">
            <mxPoint x="190" y="1450" as="sourcePoint" />
            <mxPoint x="350" y="1450" as="targetPoint" />
            <Array as="points">
              <mxPoint x="100" y="1664" />
            </Array>
          </mxGeometry>
        </mxCell>
        <mxCell id="scj3wEo-UtRtpYb698jh-48" value="(1,1)" style="resizable=0;html=1;whiteSpace=wrap;align=right;verticalAlign=bottom;" parent="scj3wEo-UtRtpYb698jh-47" connectable="0" vertex="1">
          <mxGeometry x="1" relative="1" as="geometry" />
        </mxCell>
        <mxCell id="scj3wEo-UtRtpYb698jh-49" value="" style="endArrow=none;html=1;rounded=0;entryX=0.5;entryY=1;entryDx=0;entryDy=0;exitX=0.5;exitY=0;exitDx=0;exitDy=0;" parent="1" source="scj3wEo-UtRtpYb698jh-46" target="scj3wEo-UtRtpYb698jh-34" edge="1">
          <mxGeometry relative="1" as="geometry">
            <mxPoint x="-50" y="1370" as="sourcePoint" />
            <mxPoint x="110" y="1370" as="targetPoint" />
          </mxGeometry>
        </mxCell>
        <mxCell id="scj3wEo-UtRtpYb698jh-50" value="(0,N)" style="resizable=0;html=1;whiteSpace=wrap;align=right;verticalAlign=bottom;" parent="scj3wEo-UtRtpYb698jh-49" connectable="0" vertex="1">
          <mxGeometry x="1" relative="1" as="geometry">
            <mxPoint x="30" y="30" as="offset" />
          </mxGeometry>
        </mxCell>
        <mxCell id="scj3wEo-UtRtpYb698jh-51" value="" style="endArrow=none;html=1;rounded=0;entryX=0.5;entryY=1;entryDx=0;entryDy=0;exitX=0.5;exitY=0;exitDx=0;exitDy=0;" parent="1" source="scj3wEo-UtRtpYb698jh-43" target="scj3wEo-UtRtpYb698jh-42" edge="1">
          <mxGeometry relative="1" as="geometry">
            <mxPoint x="590" y="1320" as="sourcePoint" />
            <mxPoint x="590" y="1250" as="targetPoint" />
          </mxGeometry>
        </mxCell>
        <mxCell id="scj3wEo-UtRtpYb698jh-52" value="(1,N)" style="resizable=0;html=1;whiteSpace=wrap;align=right;verticalAlign=bottom;" parent="scj3wEo-UtRtpYb698jh-51" connectable="0" vertex="1">
          <mxGeometry x="1" relative="1" as="geometry">
            <mxPoint x="30" y="20" as="offset" />
          </mxGeometry>
        </mxCell>
        <mxCell id="scj3wEo-UtRtpYb698jh-53" value="" style="endArrow=none;html=1;rounded=0;exitX=0.5;exitY=1;exitDx=0;exitDy=0;entryX=0.5;entryY=0;entryDx=0;entryDy=0;" parent="1" source="scj3wEo-UtRtpYb698jh-43" target="scj3wEo-UtRtpYb698jh-44" edge="1">
          <mxGeometry relative="1" as="geometry">
            <mxPoint x="590" y="1360" as="sourcePoint" />
            <mxPoint x="750" y="1360" as="targetPoint" />
          </mxGeometry>
        </mxCell>
        <mxCell id="scj3wEo-UtRtpYb698jh-54" value="(1,1)" style="resizable=0;html=1;whiteSpace=wrap;align=right;verticalAlign=bottom;" parent="scj3wEo-UtRtpYb698jh-53" connectable="0" vertex="1">
          <mxGeometry x="1" relative="1" as="geometry" />
        </mxCell>
        <mxCell id="scj3wEo-UtRtpYb698jh-55" value="confirms" style="shape=rhombus;perimeter=rhombusPerimeter;whiteSpace=wrap;html=1;align=center;" parent="1" vertex="1">
          <mxGeometry x="420" y="960" width="120" height="60" as="geometry" />
        </mxCell>
        <mxCell id="scj3wEo-UtRtpYb698jh-56" value="" style="endArrow=none;html=1;rounded=0;exitX=1;exitY=0.5;exitDx=0;exitDy=0;entryX=0.5;entryY=0;entryDx=0;entryDy=0;" parent="1" source="qQA82szUNsiV9IecN4Yf-2" target="scj3wEo-UtRtpYb698jh-55" edge="1">
          <mxGeometry relative="1" as="geometry">
            <mxPoint x="400" y="872.5" as="sourcePoint" />
            <mxPoint x="610" y="880" as="targetPoint" />
            <Array as="points">
              <mxPoint x="480" y="570" />
            </Array>
          </mxGeometry>
        </mxCell>
        <mxCell id="scj3wEo-UtRtpYb698jh-57" value="(0,N)" style="resizable=0;html=1;whiteSpace=wrap;align=right;verticalAlign=bottom;" parent="scj3wEo-UtRtpYb698jh-56" connectable="0" vertex="1">
          <mxGeometry x="1" relative="1" as="geometry">
            <mxPoint x="-120" y="-401" as="offset" />
          </mxGeometry>
        </mxCell>
        <mxCell id="scj3wEo-UtRtpYb698jh-58" value="" style="endArrow=none;html=1;rounded=0;exitX=0.5;exitY=1;exitDx=0;exitDy=0;entryX=0.5;entryY=0;entryDx=0;entryDy=0;" parent="1" source="scj3wEo-UtRtpYb698jh-55" target="scj3wEo-UtRtpYb698jh-41" edge="1">
          <mxGeometry relative="1" as="geometry">
            <mxPoint x="530" y="1030" as="sourcePoint" />
            <mxPoint x="690" y="1030" as="targetPoint" />
          </mxGeometry>
        </mxCell>
        <mxCell id="scj3wEo-UtRtpYb698jh-59" value="(1,1)" style="resizable=0;html=1;whiteSpace=wrap;align=right;verticalAlign=bottom;" parent="scj3wEo-UtRtpYb698jh-58" connectable="0" vertex="1">
          <mxGeometry x="1" relative="1" as="geometry" />
        </mxCell>
        <mxCell id="scj3wEo-UtRtpYb698jh-60" value="provides" style="shape=rhombus;perimeter=rhombusPerimeter;whiteSpace=wrap;html=1;align=center;" parent="1" vertex="1">
          <mxGeometry x="240" y="1160" width="120" height="60" as="geometry" />
        </mxCell>
        <mxCell id="scj3wEo-UtRtpYb698jh-63" value="" style="endArrow=none;html=1;rounded=0;entryX=0.5;entryY=1;entryDx=0;entryDy=0;exitX=0.5;exitY=0;exitDx=0;exitDy=0;" parent="1" source="scj3wEo-UtRtpYb698jh-60" target="scj3wEo-UtRtpYb698jh-6" edge="1">
          <mxGeometry relative="1" as="geometry">
            <mxPoint x="100" y="1010" as="sourcePoint" />
            <mxPoint x="260" y="1010" as="targetPoint" />
            <Array as="points">
              <mxPoint x="300" y="1040" />
              <mxPoint x="140" y="1040" />
            </Array>
          </mxGeometry>
        </mxCell>
        <mxCell id="scj3wEo-UtRtpYb698jh-64" value="(0,N)" style="resizable=0;html=1;whiteSpace=wrap;align=right;verticalAlign=bottom;" parent="scj3wEo-UtRtpYb698jh-63" connectable="0" vertex="1">
          <mxGeometry x="1" relative="1" as="geometry">
            <mxPoint x="30" y="20" as="offset" />
          </mxGeometry>
        </mxCell>
        <mxCell id="scj3wEo-UtRtpYb698jh-66" value="" style="endArrow=none;html=1;rounded=0;entryX=0.25;entryY=0;entryDx=0;entryDy=0;exitX=0.5;exitY=1;exitDx=0;exitDy=0;" parent="1" source="scj3wEo-UtRtpYb698jh-60" target="scj3wEo-UtRtpYb698jh-44" edge="1">
          <mxGeometry relative="1" as="geometry">
            <mxPoint x="220" y="1350" as="sourcePoint" />
            <mxPoint x="380" y="1350" as="targetPoint" />
            <Array as="points">
              <mxPoint x="300" y="1480" />
              <mxPoint x="440" y="1480" />
            </Array>
          </mxGeometry>
        </mxCell>
        <mxCell id="scj3wEo-UtRtpYb698jh-67" value="(1,1)" style="resizable=0;html=1;whiteSpace=wrap;align=right;verticalAlign=bottom;" parent="scj3wEo-UtRtpYb698jh-66" connectable="0" vertex="1">
          <mxGeometry x="1" relative="1" as="geometry" />
        </mxCell>
        <mxCell id="scj3wEo-UtRtpYb698jh-68" value="Transaction" style="swimlane;childLayout=stackLayout;horizontal=1;startSize=50;horizontalStack=0;rounded=1;fontSize=14;fontStyle=0;strokeWidth=2;resizeParent=0;resizeLast=1;shadow=0;dashed=0;align=center;arcSize=4;whiteSpace=wrap;html=1;" parent="1" vertex="1">
          <mxGeometry x="840" y="1115" width="160" height="120" as="geometry" />
        </mxCell>
        <mxCell id="scj3wEo-UtRtpYb698jh-69" value="+ Order: orderCode&lt;div&gt;+ transactionCode&lt;/div&gt;&lt;div&gt;+ amount&lt;/div&gt;" style="align=left;strokeColor=none;fillColor=none;spacingLeft=4;fontSize=12;verticalAlign=top;resizable=0;rotatable=0;part=1;html=1;" parent="scj3wEo-UtRtpYb698jh-68" vertex="1">
          <mxGeometry y="50" width="160" height="70" as="geometry" />
        </mxCell>
        <mxCell id="scj3wEo-UtRtpYb698jh-70" value="implies" style="shape=rhombus;perimeter=rhombusPerimeter;whiteSpace=wrap;html=1;align=center;" parent="1" vertex="1">
          <mxGeometry x="660" y="1160" width="90" height="50" as="geometry" />
        </mxCell>
        <mxCell id="scj3wEo-UtRtpYb698jh-71" value="" style="endArrow=none;html=1;rounded=0;exitX=1;exitY=0.5;exitDx=0;exitDy=0;entryX=0;entryY=0.5;entryDx=0;entryDy=0;" parent="1" source="scj3wEo-UtRtpYb698jh-70" target="scj3wEo-UtRtpYb698jh-68" edge="1">
          <mxGeometry relative="1" as="geometry">
            <mxPoint x="730" y="980" as="sourcePoint" />
            <mxPoint x="890" y="980" as="targetPoint" />
          </mxGeometry>
        </mxCell>
        <mxCell id="scj3wEo-UtRtpYb698jh-72" value="(1,1)" style="resizable=0;html=1;whiteSpace=wrap;align=right;verticalAlign=bottom;" parent="scj3wEo-UtRtpYb698jh-71" connectable="0" vertex="1">
          <mxGeometry x="1" relative="1" as="geometry" />
        </mxCell>
        <mxCell id="scj3wEo-UtRtpYb698jh-73" value="" style="endArrow=none;html=1;rounded=0;entryX=1;entryY=0.25;entryDx=0;entryDy=0;exitX=0;exitY=0.5;exitDx=0;exitDy=0;" parent="1" source="scj3wEo-UtRtpYb698jh-70" target="scj3wEo-UtRtpYb698jh-42" edge="1">
          <mxGeometry relative="1" as="geometry">
            <mxPoint x="672.08" y="1141.19" as="sourcePoint" />
            <mxPoint x="580.0000000000001" y="1140" as="targetPoint" />
          </mxGeometry>
        </mxCell>
        <mxCell id="scj3wEo-UtRtpYb698jh-74" value="(1,1)" style="resizable=0;html=1;whiteSpace=wrap;align=right;verticalAlign=bottom;" parent="scj3wEo-UtRtpYb698jh-73" connectable="0" vertex="1">
          <mxGeometry x="1" relative="1" as="geometry">
            <mxPoint x="30" y="-2" as="offset" />
          </mxGeometry>
        </mxCell>
        <mxCell id="qQA82szUNsiV9IecN4Yf-1" value="User" style="swimlane;childLayout=stackLayout;horizontal=1;startSize=50;horizontalStack=0;rounded=1;fontSize=14;fontStyle=0;strokeWidth=2;resizeParent=0;resizeLast=1;shadow=0;dashed=0;align=center;arcSize=4;whiteSpace=wrap;html=1;" parent="1" vertex="1">
          <mxGeometry x="160" y="450" width="160" height="190" as="geometry" />
        </mxCell>
        <mxCell id="qQA82szUNsiV9IecN4Yf-2" value="&lt;div&gt;+ userCode&lt;/div&gt;+ username&lt;div&gt;+ password&lt;/div&gt;&lt;div&gt;+ e-mail&lt;/div&gt;" style="align=left;strokeColor=none;fillColor=none;spacingLeft=4;fontSize=12;verticalAlign=top;resizable=0;rotatable=0;part=1;html=1;" parent="qQA82szUNsiV9IecN4Yf-1" vertex="1">
          <mxGeometry y="50" width="160" height="140" as="geometry" />
        </mxCell>
        <mxCell id="nP8oKD4ADXIjFvvEQsHO-15" value="Category" style="swimlane;childLayout=stackLayout;horizontal=1;startSize=50;horizontalStack=0;rounded=1;fontSize=14;fontStyle=0;strokeWidth=2;resizeParent=0;resizeLast=1;shadow=0;dashed=0;align=center;arcSize=4;whiteSpace=wrap;html=1;" parent="1" vertex="1">
          <mxGeometry x="-413" y="1460" width="160" height="120" as="geometry" />
        </mxCell>
        <mxCell id="nP8oKD4ADXIjFvvEQsHO-16" value="+ categoryCode&lt;div&gt;+ description&lt;/div&gt;" style="align=left;strokeColor=none;fillColor=none;spacingLeft=4;fontSize=12;verticalAlign=top;resizable=0;rotatable=0;part=1;html=1;" parent="nP8oKD4ADXIjFvvEQsHO-15" vertex="1">
          <mxGeometry y="50" width="160" height="70" as="geometry" />
        </mxCell>
        <mxCell id="nP8oKD4ADXIjFvvEQsHO-17" value="belongs to" style="shape=rhombus;perimeter=rhombusPerimeter;whiteSpace=wrap;html=1;align=center;" parent="1" vertex="1">
          <mxGeometry x="-240" y="1340" width="120" height="60" as="geometry" />
        </mxCell>
        <mxCell id="nP8oKD4ADXIjFvvEQsHO-18" value="" style="endArrow=none;html=1;rounded=0;entryX=0.201;entryY=1.032;entryDx=0;entryDy=0;entryPerimeter=0;exitX=0.5;exitY=0;exitDx=0;exitDy=0;" parent="1" source="nP8oKD4ADXIjFvvEQsHO-17" target="scj3wEo-UtRtpYb698jh-34" edge="1">
          <mxGeometry relative="1" as="geometry">
            <mxPoint x="-200" y="1300" as="sourcePoint" />
            <mxPoint x="-40" y="1300" as="targetPoint" />
            <Array as="points">
              <mxPoint x="-180" y="1300" />
              <mxPoint x="52" y="1300" />
            </Array>
          </mxGeometry>
        </mxCell>
        <mxCell id="nP8oKD4ADXIjFvvEQsHO-20" value="(1, N)" style="edgeLabel;html=1;align=center;verticalAlign=middle;resizable=0;points=[];" parent="nP8oKD4ADXIjFvvEQsHO-18" vertex="1" connectable="0">
          <mxGeometry x="0.5805" y="-3" relative="1" as="geometry">
            <mxPoint x="7" y="-33" as="offset" />
          </mxGeometry>
        </mxCell>
        <mxCell id="nP8oKD4ADXIjFvvEQsHO-19" value="" style="endArrow=none;html=1;rounded=0;entryX=0;entryY=0.5;entryDx=0;entryDy=0;exitX=0.441;exitY=-0.007;exitDx=0;exitDy=0;exitPerimeter=0;" parent="1" source="nP8oKD4ADXIjFvvEQsHO-15" target="nP8oKD4ADXIjFvvEQsHO-17" edge="1">
          <mxGeometry relative="1" as="geometry">
            <mxPoint x="-430" y="1370" as="sourcePoint" />
            <mxPoint x="-270" y="1370" as="targetPoint" />
            <Array as="points">
              <mxPoint x="-342" y="1370" />
            </Array>
          </mxGeometry>
        </mxCell>
        <mxCell id="nP8oKD4ADXIjFvvEQsHO-21" value="(0, N)" style="edgeLabel;html=1;align=center;verticalAlign=middle;resizable=0;points=[];" parent="nP8oKD4ADXIjFvvEQsHO-19" vertex="1" connectable="0">
          <mxGeometry x="-0.3972" y="-1" relative="1" as="geometry">
            <mxPoint x="-19" y="39" as="offset" />
          </mxGeometry>
        </mxCell>
        <mxCell id="RYGPUhW5MlXXYGZ4Y1tC-1" value="Adress" style="swimlane;childLayout=stackLayout;horizontal=1;startSize=50;horizontalStack=0;rounded=1;fontSize=14;fontStyle=0;strokeWidth=2;resizeParent=0;resizeLast=1;shadow=0;dashed=0;align=center;arcSize=4;whiteSpace=wrap;html=1;" vertex="1" parent="1">
          <mxGeometry x="700" y="450" width="160" height="190" as="geometry" />
        </mxCell>
        <mxCell id="RYGPUhW5MlXXYGZ4Y1tC-2" value="+ adressCode&lt;div&gt;+ state&lt;/div&gt;&lt;div&gt;+ city&lt;/div&gt;&lt;div&gt;+ postalCode&lt;/div&gt;&lt;div&gt;+ street&lt;/div&gt;&lt;div&gt;+ number&lt;/div&gt;&lt;div&gt;+ latitude&lt;/div&gt;&lt;div&gt;+ longitude&lt;/div&gt;" style="align=left;strokeColor=none;fillColor=none;spacingLeft=4;spacingRight=4;fontSize=12;verticalAlign=top;resizable=0;rotatable=0;part=1;html=1;whiteSpace=wrap;" vertex="1" parent="RYGPUhW5MlXXYGZ4Y1tC-1">
          <mxGeometry y="50" width="160" height="140" as="geometry" />
        </mxCell>
        <mxCell id="RYGPUhW5MlXXYGZ4Y1tC-9" value="shipped to" style="shape=rhombus;perimeter=rhombusPerimeter;whiteSpace=wrap;html=1;align=center;" vertex="1" parent="1">
          <mxGeometry x="720" y="810" width="120" height="60" as="geometry" />
        </mxCell>
        <mxCell id="RYGPUhW5MlXXYGZ4Y1tC-10" value="" style="endArrow=none;html=1;rounded=0;exitX=0.5;exitY=1;exitDx=0;exitDy=0;entryX=0.5;entryY=0;entryDx=0;entryDy=0;" edge="1" parent="1" source="RYGPUhW5MlXXYGZ4Y1tC-2" target="RYGPUhW5MlXXYGZ4Y1tC-9">
          <mxGeometry relative="1" as="geometry">
            <mxPoint x="860" y="730" as="sourcePoint" />
            <mxPoint x="1020" y="730" as="targetPoint" />
          </mxGeometry>
        </mxCell>
        <mxCell id="RYGPUhW5MlXXYGZ4Y1tC-12" value="(0,N)" style="edgeLabel;html=1;align=center;verticalAlign=middle;resizable=0;points=[];" vertex="1" connectable="0" parent="RYGPUhW5MlXXYGZ4Y1tC-10">
          <mxGeometry x="0.3439" y="2" relative="1" as="geometry">
            <mxPoint x="18" y="-104" as="offset" />
          </mxGeometry>
        </mxCell>
        <mxCell id="RYGPUhW5MlXXYGZ4Y1tC-11" value="" style="endArrow=none;html=1;rounded=0;exitX=1.017;exitY=0.156;exitDx=0;exitDy=0;exitPerimeter=0;entryX=0.5;entryY=1;entryDx=0;entryDy=0;" edge="1" parent="1" source="scj3wEo-UtRtpYb698jh-41" target="RYGPUhW5MlXXYGZ4Y1tC-9">
          <mxGeometry relative="1" as="geometry">
            <mxPoint x="630" y="980" as="sourcePoint" />
            <mxPoint x="790" y="980" as="targetPoint" />
            <Array as="points">
              <mxPoint x="640" y="1130" />
              <mxPoint x="640" y="960" />
              <mxPoint x="780" y="960" />
            </Array>
          </mxGeometry>
        </mxCell>
        <mxCell id="RYGPUhW5MlXXYGZ4Y1tC-13" value="(1,1)" style="edgeLabel;html=1;align=center;verticalAlign=middle;resizable=0;points=[];" vertex="1" connectable="0" parent="RYGPUhW5MlXXYGZ4Y1tC-11">
          <mxGeometry x="0.334" y="1" relative="1" as="geometry">
            <mxPoint x="-141" y="161" as="offset" />
          </mxGeometry>
        </mxCell>
      </root>
    </mxGraphModel>
  </diagram>
</mxfile>
